<svg width="180" height="273" viewBox="0 0 180 273" fill="none" xmlns="http://www.w3.org/2000/svg">
<path fill-rule="evenodd" class='primary' clip-rule="evenodd" d="M44.4238 111.909L33.9028 36.8298C74.1939 22.3627 118.986 41.9789 135.059 81.7159C146.173 109.195 140.713 139.273 123.372 161.01C150.98 139.447 161.859 100.372 147.536 64.9612C130.344 22.4567 83.3506 1.32822 42.574 17.7694C38.8548 19.269 35.3157 21.0294 31.968 23.0227L28.7828 0.29248L25.9908 26.973C14.3532 35.4755 5.49489 47.005 1.52588e-05 60.1018C6.67401 52.3311 14.9306 45.7383 24.5369 40.8661L17.1521 111.436C15.2797 112.548 13.5273 113.921 11.9469 115.555C2.03508 125.803 2.6377 142.438 13.2928 152.712C14.3 153.683 15.3609 154.562 16.4648 155.35L30.7941 272.414L44.8928 157.129C45.4591 156.808 46.0149 156.464 46.5589 156.096C46.7642 164.182 47.5394 172.399 48.9293 180.626C58.9731 240.077 97.3134 277.562 134.565 264.35C154.924 257.13 170.745 236.26 179.266 209.111C166.316 230.288 148.296 243.328 128.435 243.096C89.4288 242.642 58.0915 191.173 58.4413 128.137C58.5459 109.289 61.4715 91.541 66.5645 75.9324C59.1889 87.2604 53.5983 101.209 50.2161 116.647C49.884 116.292 49.5408 115.943 49.1865 115.601C47.704 114.172 46.1049 112.941 44.4238 111.909ZM31 156C43.1503 156 53 146.15 53 134C53 121.85 43.1503 112 31 112C18.8497 112 9 121.85 9 134C9 146.15 18.8497 156 31 156Z" fill="#D4AF37"/>
<path class='secondary' fill-rule="evenodd" clip-rule="evenodd" d="M30 108C30.5314 108 31.0591 108.016 31.5826 108.047L29.6845 38.8066C27.9951 39.4362 26.3441 40.1188 24.7349 40.8516L17.3803 110.599C18.208 110.389 19.0478 110.2 19.8984 110.035C23.004 108.725 26.4174 108 30 108ZM29.2967 24.6588L28.7078 3.17477L26.2309 26.6643C27.23 25.9751 28.2522 25.3062 29.2967 24.6588ZM43 134C43 140.627 37.6274 146 31 146C24.3726 146 19 140.627 19 134C19 127.373 24.3726 122 31 122C37.6274 122 43 127.373 43 134ZM30.4728 160.995L31.3637 266.14L44.9001 157.446C44.6232 157.511 44.345 157.574 44.0656 157.634C40.194 159.779 35.7396 161 31 161C30.8239 161 30.6481 160.998 30.4728 160.995Z" fill="#0077B6
"/>
</svg>
